<svg xmlns="http://www.w3.org/2000/svg" xmlns:xlink="http://www.w3.org/1999/xlink" viewBox="0 0 3000 3000"><defs><style>.cls-1{fill:url(#Dégradé_sans_nom_16);}</style><radialGradient id="Dégradé_sans_nom_16" cx="1493.54" cy="-94.63" r="4210.42" gradientUnits="userSpaceOnUse"><stop offset="0" stop-color="#940074"/><stop offset="1" stop-color="#00156a"/></radialGradient></defs><g id="finalcercle"><path class="cls-1" d="M2861.94,924.64c-112.21-265.29-299.6-490.93-535.5-650.3S1806,21.88,1500,21.89c-204,0-398.5,41.36-575.36,116.17-265.29,112.21-490.93,299.6-650.3,535.5S21.88,1194,21.89,1500c0,204,41.36,398.5,116.17,575.36,112.21,265.29,299.6,490.93,535.49,650.3S1194,2978.12,1500,2978.11c408.09,0,777.78-165.48,1045.18-432.93S2978.12,1908.09,2978.11,1500C2978.12,1296,2936.75,1101.5,2861.94,924.64ZM2714.35,2250.56c1.61-12.64,2.9-25.26,4-37.93,2.09-23.89,3.15-47.85,3.11-72.14-.13-6.1-.14-12.18-.38-18.32l-.5-9.24c-.15-3.07-.35-6.17-.69-9.31l-.89-9.39c-.29-3.12-.9-6.38-1.34-9.57-.74-6.3-2.46-13.12-4-19.78L2695,1982.16l-24.89,83.29a162.58,162.58,0,0,1-14.48,34,152.23,152.23,0,0,1-50,52.47c-.42.28-.87.51-1.3.78.06-8.62.41-17.24,1.1-25.81a350.7,350.7,0,0,1,31-119.1q6.43-14.07,14.14-27.55,1.9-3.37,3.93-6.68c1.31-2.22,2.68-4.42,4.08-6.6,2.63-4.26,5.43-8.22,8.13-12.34l7.09-8c3-3.42,5.76-7.1,8.46-10.78a198.83,198.83,0,0,0,14.53-23.26,194.1,194.1,0,0,0,18.71-51.24,196.74,196.74,0,0,0-6.73-106.83l-18.19-51.84L2671.87,1753a141.72,141.72,0,0,1-71.21,78.37,803,803,0,0,1-30.31-86.92c-5-17.21-9.31-34.65-13.18-52.25l-2.81-13.23-2.63-13.29c-1.63-8.9-3.14-17.82-4.65-26.78l-.19,13.63.18,13.63.44,13.65c.19,4.55.48,9.1.75,13.66,1.21,18.2,3.25,36.38,6,54.49a669.8,669.8,0,0,0,25.64,107.18l4,12.17,13.63-3.69a163.6,163.6,0,0,0,34.66-13.8,173.93,173.93,0,0,0,31-21.23,171.28,171.28,0,0,0,14.08-13.67,157.2,157.2,0,0,1-21.26,75,153.75,153.75,0,0,1-11.73,17.45c-2.18,2.75-4.35,5.48-6.79,8l-7.22,7.67-1.36,1.44-1,1.3c-7.07,9.65-13.62,19.42-19.66,29.57s-11.68,20.54-16.81,31.18A381.48,381.48,0,0,0,2555,2123a394.13,394.13,0,0,0,1.1,70.81l3.4,31.79,29.76-10.72a198.49,198.49,0,0,0,79.88-53.36q5.7-6.39,10.82-13.23c1.09,20.66,1.24,41.59,1,62.52-.19,11.55-.5,23.12-1.09,34.64s-1.25,23-2.26,34.31l-.92,8.34-1.16,7.92-3.37,17.11-.42,2.15a1435.47,1435.47,0,0,1-373.75,368.44,1419.31,1419.31,0,0,1-536.68,219.84c1.74-1,3.5-2.05,5.21-3.14l7.9-5.22c2.64-1.74,5.15-3.68,7.72-5.54a248.26,248.26,0,0,0,28.85-25.13,222.27,222.27,0,0,0,24.52-30,214.41,214.41,0,0,0,18.85-34.42,198.45,198.45,0,0,0,12-37.81,191.82,191.82,0,0,0,3.15-19.88c.36-3.36.59-6.77.75-10.22.06-1.74.1-3.48.11-5.27l0-2.73c0-1,0-1.73-.18-3.22l-1.1-12.56-20.13-2.43c-.1,0-1,.13-1.53.19l-2,.23c-1.37.13-2.79.25-4.22.33-2.86.16-5.76.23-8.67.17a120.08,120.08,0,0,1-17.29-1.52,110.53,110.53,0,0,1-32.13-10.33,98.3,98.3,0,0,1-26.39-19.7c-1.27-1.33-2.46-2.75-3.67-4.15,9.13-3.07,18.14-6.45,27.09-10a568.91,568.91,0,0,0,53.88-24.58,438.18,438.18,0,0,0,51.17-31.53,290.73,290.73,0,0,0,46.33-41c1.77-1.94,3.46-4,5.19-6s3.44-4,5-6.19l4.88-6.36,4.2-5.81c5.59-7.76,11.22-15.54,16.68-23.5,10.94-15.91,21.68-32.21,31.68-49.5s19.28-35.64,25.75-56.58a145.43,145.43,0,0,0,6.38-33.54,120,120,0,0,0-.38-18.24,102.79,102.79,0,0,0-3.8-18.38l-1-3.2-1.44-2.28a40.78,40.78,0,0,0-8.67-10.08,39.56,39.56,0,0,0-11.45-6.64,48.26,48.26,0,0,0-20.37-2.77,76.09,76.09,0,0,0-15.16,2.61,122.11,122.11,0,0,0-12.59,4.22c-15.65,6.26-28.8,14-41.54,22.11-6.42,4.13-12.67,8.38-18.81,12.73,3.11-8.28,6.44-16.36,10.11-24l2.4-4.75c.83-1.6,1.82-3.25,2.72-4.88l2.76-4.89,2.93-4.76c3.87-6.39,8.15-12.44,12.57-18.42a239.3,239.3,0,0,1,30.42-33c11.28-10.28,23.44-20.07,35.93-29.74l9.35-7.32c3.12-2.44,6.22-4.83,9.5-7.53s6.31-5.4,9.41-8.14,6-5.71,8.74-8.73a251.18,251.18,0,0,0,29.73-38.5,468.14,468.14,0,0,0,23.29-41.87c-19.05,25.43-39.07,50.29-63,69.63a187.06,187.06,0,0,1-18.54,13.3c-3.11,2-6.58,4.05-10,6.1l-10.23,6.17c-13.59,8.35-27.26,17-40.53,26.77a264.33,264.33,0,0,0-37.36,33.48c-5.58,6.33-11,12.82-16,19.6l-3.75,5.08-3.54,5.18c-1.17,1.75-2.36,3.41-3.52,5.24l-3.46,5.6c-8.71,14.93-15.45,30-21.7,45.18-3.1,7.59-6.08,15.2-8.8,22.88s-5.36,15.25-7.91,23.39l-19.22,61.37,51.93-40.3c5.2-4,10.92-8.29,16.49-12.32s11.29-8.05,17-12c11.37-7.85,22.93-15.34,34.59-22.09,5.82-3.38,11.68-6.54,17.48-9.43a154.93,154.93,0,0,1,17-7.41,64.35,64.35,0,0,1,9.51-2.7,2,2,0,0,0,0,.24,71.29,71.29,0,0,1,0,10.12,96.63,96.63,0,0,1-4.76,22c-5,15.19-13.09,30.78-22,46.19s-19.24,30.71-29.85,45.92l-16.1,22.87-4.09,5.72-3.73,4.91c-1.2,1.67-2.54,3.26-3.89,4.84s-2.64,3.22-4.05,4.77c-22.5,25-51.78,45.93-83.15,63.39a542.06,542.06,0,0,1-48.67,24.1c-8.34,3.65-16.79,7.05-25.27,10.34-4.23,1.66-8.49,3.22-12.74,4.76l-6.36,2.23-6.07,2-27.17,9,13.74,23.31a164.73,164.73,0,0,0,28.62,36.2,140,140,0,0,0,39.14,25.71,142.37,142.37,0,0,0,44.65,11.27,156.36,156.36,0,0,0,22.69.35c.9-.05,1.8-.13,2.71-.2-.17,4.63-.51,9.29-1.09,14a164.21,164.21,0,0,1-2.93,16.64c-1.19,5.53-2.74,11-4.43,16.43a199.88,199.88,0,0,1-32.48,60.79,236.91,236.91,0,0,1-23.73,26.26c-2.2,2-4.29,4.13-6.55,6.09l-6.76,5.9c-4.53,3.79-9.24,7.39-14.18,10.8-4.53,3.19-9.23,6.2-14,9.18A1439.5,1439.5,0,0,1,1500,2927.44c-197.16,0-384.85-40-555.62-112.17-256.13-108.33-474.13-289.36-628-517.19q-19.9-29.48-38.32-60c1.08,1.52,2.14,3.06,3.23,4.58a1224.59,1224.59,0,0,0,93.26,115.18l12.65,13.57c4.22,4.52,8.41,9.08,12.84,13.39,8.78,8.7,17.43,17.55,26.33,26.13l27.15,25.26c9.14,8.22,18.37,16.18,27.55,24.28,18.2,16.32,37.28,31.72,56,47.49,9.5,7.74,19.17,15.28,28.75,22.93l14.41,11.42,14.72,11.06,14.72,11.06c4.92,3.66,9.76,7.43,14.83,10.92l30.1,21.3c20.42,13.75,40.8,27.58,62,40.31,42.07,25.83,85.83,49.39,131.88,68.92l17.31,7.23c5.81,2.33,11.79,4.34,17.68,6.53s11.77,4.38,17.78,6.31l18.14,5.53,9.08,2.76c3.06.83,6.18,1.53,9.26,2.3l18.57,4.5c6.25,1.35,12.63,2.31,18.93,3.47l9.49,1.67c3.18.51,6.44.74,9.65,1.12,6.44.66,12.94,1.4,19.32,2,6.23.33,12.42.78,18.68,1,12.52.49,25.1.82,37.79.53a453,453,0,0,0,76.29-7.52,406.41,406.41,0,0,0,73.93-21.54,488.29,488.29,0,0,0,68.39-33.58c5.47-3.06,11-6.5,16.36-9.9s10.63-6.92,15.77-10.5q15.51-10.7,30.29-22c19.78-15,38.86-30.81,57.44-47.36,9.26-8.34,18.43-16.78,27.35-25.72,2.25-2.19,4.47-4.46,6.68-6.76s4.43-4.52,6.6-6.94,4.38-4.75,6.48-7.14l6-7.2c8-9.65,16.34-19,23.65-29.2l11.29-15c1.92-2.47,3.68-5.06,5.42-7.66l5.25-7.77c28.18-41.33,51.83-85.47,71.55-131s35.45-92.57,48.4-140.05,23.07-95.55,31.68-143.63l6.46-36.1-34.13,12.94a425.4,425.4,0,0,1-127.79,27.15c-11,.61-21.73.78-33.2.65l-17-.07c-5.66,0-11.34-.23-17-.33l-17-.37-17-.6-17-.61-17-.81c-45.46-2.19-91-5.39-136.43-9.19-34.78-2.94-69.62-6.25-104.3-9.93q48.29-56.57,98.46-111.78c40.72-44.67,82.12-88.72,125.1-131,21.5-21.1,43.4-41.76,66-61.42s45.9-38.57,70.6-53.65c1.54-.92,3.06-2,4.62-2.79l4.68-2.48a79.9,79.9,0,0,1,9.37-4.57c5.87-2.69,13.41-5.14,20.45-7.57,14.21-4.78,28.61-9.67,42.58-13.27A425.31,425.31,0,0,1,1657,1652l41.89-1.78-37.83-17.59a73.06,73.06,0,0,0-9.12-3.52l-.87-.28-.71-.09-23-3.22c10.37-13.64,20.6-27.35,30.94-41l8.24-10.93c1.49-1.61,3-3.21,4.47-4.82q29.52-32,58.1-64.73c9.54-10.9,19.08-21.79,28.46-32.81s18.84-22,28.12-33.06l14-16.6c4.64-5.31,9-10.78,13.73-16,9.19-10.61,19-20.7,28.57-30.86a825.28,825.28,0,0,1,128.43-107.37,817,817,0,0,1,147.69-78.92l4.63-1.89,2.43-2.33c9.41-9,18.93-17.93,28.13-27.18s18.56-18.31,27.59-27.71c18.18-18.69,36-37.67,53.4-57.13s34.34-39.24,50.67-59.6c4.11-5.06,8.12-10.21,12.11-15.38s7.94-10.37,11.83-15.61,7.67-10.59,11.37-16A181,181,0,0,0,2330.81,949c-9.14,9.29-18.95,17.75-28.65,26.36l-29.29,25.54q-29.35,25.4-58.81,50.54t-59,50c-18.41,15.65-37.07,31-55.57,46.47a668.45,668.45,0,0,0-157.12,77.44,679.59,679.59,0,0,0-134.59,117.67c-4.85,5.67-9.84,11.21-14.46,17.07l-7,8.7-6.84,8.83c-4.6,5.86-8.94,11.93-13.33,17.91l-12.52,17.74q-12.57,17.7-24.85,35.62c-8.27,11.87-16.39,23.87-24.51,35.87q-24.36,36-47.85,72.64c-1.11,1.73-2.2,3.47-3.3,5.2l-8.68,11c-14.59,18.38-29,37-43.76,55.13L1594,1637c-10,1.57-20,3.46-30,5.77-15.5,3.64-29.94,8.23-44.59,12.79-7.34,2.37-14.31,4.38-22.37,7.74a96.84,96.84,0,0,0-11.18,5.13l-5.43,2.73c-1.8.92-3.45,2-5.18,3-27.5,15.94-51.72,35.06-75.32,54.73s-46.17,40.3-68.37,61.26c-44.36,42-86.91,85.57-128.61,129.92s-82.49,89.37-122.57,135.46l-20.85,24,31.79,4.12c45.78,5.93,91.35,11,137.14,15.5s91.62,8.34,137.63,11.2l17.26,1.07,17.29.86,17.29.85,17.33.58c5.78.17,11.55.43,17.34.53l17.39.28c11.44.26,23.58.23,35.49-.31a471.52,471.52,0,0,0,71.2-8.64q17.46-3.53,34.62-8.36c-7.39,35.46-15.77,70.61-25.54,105.26-12.92,45.78-28.35,90.73-47.56,133.82s-41.81,84.46-68.52,122.89l-5,7.23c-1.64,2.42-3.3,4.82-5.12,7.11l-10.66,13.91c-6.88,9.46-14.73,18.11-22.22,27.06l-5.66,6.67c-1.91,2.15-3.84,4.17-5.76,6.26s-4,4.11-6,6.17-4,4.11-6.12,6.12c-8.22,8.15-16.92,16-25.7,23.85-17.66,15.54-36,30.51-54.87,44.65q-14.1,10.64-28.59,20.48c-4.81,3.31-9.65,6.43-14.5,9.54s-9.64,6-14.76,8.78c-40.08,23.29-82.83,40.49-127.43,48.63a402.9,402.9,0,0,1-68.07,6.41c-11.52.22-23.14-.12-34.81-.62-5.83-.24-11.71-.69-17.57-1l-16.79-1.81c-2.79-.34-5.58-.51-8.37-1l-8.38-1.53c-5.59-1.06-11.19-1.9-16.77-3.13l-16.69-4.12c-2.78-.71-5.58-1.33-8.35-2.1l-8.28-2.56L916.73,2679c-5.5-1.79-10.93-4-16.4-5.91s-11-3.9-16.35-6.11l-16.16-6.83c-43.05-18.4-84.65-41.09-125-65.92-20.3-12.23-40-25.63-59.69-38.93L654,2534.65c-4.9-3.38-9.61-7.05-14.39-10.63l-14.29-10.76L611,2502.49l-14-11.15c-9.33-7.47-18.74-14.82-28-22.38-18.27-15.46-36.87-30.49-54.68-46.52-9-7.92-18.06-15.78-26.91-23.76l-26-24.23c-8.51-8.23-16.77-16.71-25.17-25-4.25-4.13-8.25-8.49-12.29-12.82l-12.13-13a1176.06,1176.06,0,0,1-89.53-110.29c-27.74-38.55-53-78.93-77.82-120.17-12.45-20.68-24.81-41.58-38.13-62.58l-5.09-7.87-2.54-3.94c-.19-.29-.48-.72-.58-.91l-.31-.59-.65-1.15-.34-.57-.18-.29-.24-.46-1-1.86-1.95-3.72-4-7.83c-5.3-10.57-10.57-21.4-15.81-32.22-20.1-41.72-39.9-83.84-59.55-125.91A1431.06,1431.06,0,0,1,72.56,1500c0-197.16,40-384.85,112.17-555.61C293.06,688.25,474.09,470.25,701.92,316.33S1204.28,72.57,1500,72.56c197.16,0,384.85,40,555.61,112.17,256.14,108.33,474.14,289.36,628.06,517.19s243.76,502.36,243.77,798.08c0,197.16-40,384.85-112.17,555.62A1422.59,1422.59,0,0,1,2714.35,2250.56Zm-726.7,111.86c.63.06.73.17,0,0Z"/><path class="cls-1" d="M1536.53,539a584.6,584.6,0,1,0,159.15,400.95,534.13,534.13,0,0,1-663.49,519.61,535.73,535.73,0,1,1,663.49-519.61A584.39,584.39,0,0,0,1536.53,539Z"/><path class="cls-1" d="M2579.51,842.52a91.72,91.72,0,0,0-23.74-21.17A116.09,116.09,0,0,0,2526.24,808a123.49,123.49,0,0,0-32.48-5.27l-4.15-.16c-1.39,0-2.77.07-4.15.1-2.77.12-5.56.16-8.33.41a137.58,137.58,0,0,0-16.51,2.48A133.72,133.72,0,0,0,2429,816.29a132.18,132.18,0,0,0-28,18,128.53,128.53,0,0,0-22.35,24.06,121.82,121.82,0,0,0-14.92,28.62l-.37.6c-.46,1.94-1,3.86-1.39,5.84s-.9,3.93-1.27,5.94c-.8,4-1.52,8.08-2,12.31,3.31-2.59,6.41-5.34,9.42-8.16,1.54-1.39,3-2.85,4.45-4.29s2.88-2.92,4.32-4.39l-.36.61c7.46-6.33,14.8-12.13,22.29-17.39a253.11,253.11,0,0,1,22.81-14.16,206.53,206.53,0,0,1,23.57-11.07,186.6,186.6,0,0,1,24.47-8c2.1-.46,4.14-1.19,6.27-1.55s4.22-.88,6.33-1.36c4.27-.64,8.53-1.63,12.88-2.05a223,223,0,0,1,26.6-2.11,269.67,269.67,0,0,1,27.86,1C2559.21,839.49,2569,841,2579.51,842.52Z"/><path class="cls-1" d="M2754.23,1040.38l-.33-2c-.26-1.34-.43-2.55-.79-4s-.81-2.94-1.27-4.4a15.68,15.68,0,0,0-.59-1.65l-.55-1.41c-.74-1.94-1.48-3.64-2.22-5.33s-1.49-3.35-2.24-5c-6-12.9-12.44-24.68-18.72-36.62l-9.59-17.59c-3.15-5.76-6.24-11.7-9-16.95l-5.66-11-9.08.27a116.36,116.36,0,0,1-31.31-3.55,118.76,118.76,0,0,1-15.24-5,120.85,120.85,0,0,1-14.57-7.3l0,.11-.27-.23-.11-.07-.45-.28-.91-.6c-.62-.41-1.25-.82-1.88-1.28-1.27-.87-2.52-1.82-3.78-2.76q-3.74-2.88-7.34-6.07A140.36,140.36,0,0,1,2604.79,894c-2.21-2.41-4.17-5-6.25-7.57-1.86-2.68-3.94-5.29-5.67-8.12a149.53,149.53,0,0,1-9.86-17.62,106.83,106.83,0,0,0,4.11,20.28,118.53,118.53,0,0,0,7.8,19.58,138.85,138.85,0,0,0,11,18.31q3.13,4.36,6.61,8.56c1.18,1.39,2.35,2.78,3.61,4.15.61.68,1.25,1.37,1.92,2.05l.45.45a8.39,8.39,0,0,1-.65-.78,9.75,9.75,0,0,1-1.75-6l4.17,8.43A141.09,141.09,0,0,0,2635.83,948a132.36,132.36,0,0,0,17.52,9.65,130.27,130.27,0,0,0,27.1,8.94c1.39,3.8,2.8,7.47,4.2,11.17l7.31,18.84c5,12.36,9.87,24.83,14.2,36.66.53,1.46,1.07,3,1.52,4.33s1,2.84,1.3,4.07l.29,1c.08.29.24.75.18.73v.46c0,.18,0,.65,0,1l0,.5v.69a80.55,80.55,0,0,1-1.71,14.4,131.63,131.63,0,0,1-4.44,16.28c-.91,2.56-1.9,5.17-2.81,7.09l-3.79,7.24c-5.91,11-12.55,21.64-19.58,32.38s-14.5,21.58-22.14,32.73c-3.8,5.58-7.54,11.31-11.27,17.08l-11.05,17.62q-5.29,8.91-10.4,17.94c-3.35,6-6.54,12.2-9.81,18.29a624.84,624.84,0,0,0-55.85,155.34,587.82,587.82,0,0,0-11.19,81.36,487.36,487.36,0,0,0,1.22,81.51c6.1-26.46,12.28-52.46,19.46-78s15-50.68,24.06-75.29a932.64,932.64,0,0,1,65.37-141.52c3.27-5.59,6.45-11.22,9.78-16.76s6.83-11,10.15-16.56l10.49-16.28,11-16.35c7.36-11,15-22.31,22.44-34.08s14.36-24.26,20.71-37.08l2.33-4.85,1.19-2.5,1.48-3.46c1.66-4.26,2.79-8,3.89-11.84a178.87,178.87,0,0,0,4.71-22.79,103.8,103.8,0,0,0,.68-25.6Z"/><path class="cls-1" d="M2052.57,1341.46a361.34,361.34,0,0,0-29.36,23.43,503.06,503.06,0,0,0-52.08,53.73c-8,9.53-16.82,18.52-25,28a130.47,130.47,0,0,0-20.07,31.29,196.36,196.36,0,0,0-12.39,35.65c-2.89,12.51-5,25.38-4.11,39.61l4.52,2.3c12-7.29,21.65-15.62,30.73-24.2a273.22,273.22,0,0,0,24.52-27,153,153,0,0,0,18.76-30.18c5.11-10.79,10-21.78,16-32s12.16-20.41,18.47-30.48,12.73-20.08,19.49-29.87c3.32-5,6.81-9.75,10.32-14.59s7.22-9.47,11-14.11c1.84-2.35,3.74-4.67,5.71-6.9s3.86-4.61,5.92-6.75,4-4.49,6.11-6.64l6.38-6.44-2.88-4.17A222.25,222.25,0,0,0,2052.57,1341.46Z"/></g></svg>
